<?xml version="1.0" encoding="UTF-8"?>
<svg width="28px" height="27px" viewBox="0 0 28 27" version="1.1" xmlns="http://www.w3.org/2000/svg" xmlns:xlink="http://www.w3.org/1999/xlink">
    <!-- Generator: Sketch 42 (36781) - http://www.bohemiancoding.com/sketch -->
    <title>dashboard</title>
    <desc>Created with Sketch.</desc>
    <defs></defs>
    <g id="Welcome" stroke="none" stroke-width="1" fill="none" fill-rule="evenodd">
        <g id="Mobile-Portrait" transform="translate(-260.000000, -606.000000)">
            <rect id="Rectangle-6" fill="#7A9E9F" x="0" y="596" width="320" height="60"></rect>
            <g id="dashboard" transform="translate(262.000000, 607.000000)" fill-rule="nonzero" fill="#EEF5DB">
                <g id="Capa_1">
                    <path d="M24.0097747,9.48147194 C23.3495757,7.57973652 22.4613292,5.94190533 21.3452796,4.56701543 C20.2292788,3.19236627 18.8992057,2.0984727 17.355109,1.28521434 C15.8109635,0.471955986 14.1929847,0.0652365325 12.5000489,0.0652365325 C10.8072107,0.0652365325 9.1889388,0.472016169 7.64508645,1.28521434 C6.1012341,2.09877361 4.77125869,3.19236627 3.65520908,4.56701543 C2.53891515,5.94190533 1.65091297,7.57973652 0.990469601,9.48147194 C0.330172822,11.3832074 0,13.3761808 0,15.4611145 C0,18.4621601 0.655654717,21.2289717 1.96706188,23.7605867 C2.14365572,24.0927991 2.39481574,24.2587849 2.72039537,24.2587849 L22.2796535,24.2587849 C22.6050865,24.2587849 22.8562466,24.0927389 23.0328404,23.7605867 C24.3443453,21.2175971 25,18.4509659 25,15.4611145 C25,13.3761808 24.6699738,11.3832074 24.0097747,9.48147194 Z M11.2373589,2.90914317 C11.5863443,2.47949384 12.0070618,2.26463908 12.5,2.26463908 C12.9929871,2.26463908 13.4137045,2.47955402 13.7625433,2.90914317 C14.1113821,3.33855176 14.2859237,3.85697162 14.2859237,4.46410181 C14.2859237,5.071232 14.1113821,5.58947131 13.7625433,6.01906045 C13.4137045,6.4486496 12.9929871,6.66356454 12.5,6.66356454 C12.0070618,6.66356454 11.5861489,6.4486496 11.2373589,6.01906045 C10.8887156,5.58941112 10.714174,5.071232 10.714174,4.46410181 C10.714174,3.85697162 10.8885201,3.33861195 11.2373589,2.90914317 Z M4.8340487,17.0161334 C4.48525876,17.445542 4.06434583,17.6609986 3.57140763,17.6609986 C3.07861602,17.6609986 2.65770309,17.445542 2.30891315,17.0161334 C1.96007435,16.5869053 1.78582597,16.0683049 1.78582597,15.4611145 C1.78582597,14.8539844 1.96007435,14.3358052 2.30891315,13.9061559 C2.65775195,13.4765066 3.07861602,13.261712 3.57140763,13.261712 C4.06434583,13.261712 4.48545422,13.4765066 4.8340487,13.9061559 C5.18269204,14.3358052 5.3572336,14.8539844 5.3572336,15.4611145 C5.3572336,16.0683049 5.18269204,16.586484 4.8340487,17.0161334 Z M7.51271437,9.31825455 C7.16372897,9.74778351 6.7430115,9.96275864 6.25002443,9.96275864 C5.75703737,9.96275864 5.3361733,9.74754278 4.9873345,9.31825455 C4.63869115,8.88884595 4.46419846,8.3704261 4.46419846,7.76329591 C4.46419846,7.15616571 4.6384957,6.63792641 4.9873345,6.20833726 C5.33631989,5.77868793 5.75703737,5.56383318 6.25002443,5.56383318 C6.74296263,5.56383318 7.16387557,5.77874812 7.51271437,6.20833726 C7.86135771,6.63798659 8.03585041,7.15616571 8.03585041,7.76329591 C8.03585041,8.37024555 7.86130885,8.88860522 7.51271437,9.31825455 Z M15.4156552,9.46437986 L14.0064715,16.0281024 C14.4718505,16.4173687 14.8066654,16.9384366 15.0113071,17.5916673 C15.2156556,18.244597 15.2437523,18.9147393 15.0949131,19.6020337 C14.9089374,20.4841419 14.4949631,21.1543443 13.8531369,21.61234 C13.2113106,22.0705765 12.5325433,22.1853462 11.8161997,21.9561076 C11.1001982,21.7270496 10.555953,21.2173563 10.1840505,20.4268473 C9.81214794,19.6361577 9.71916009,18.8002704 9.90513578,17.9179215 C10.0538772,17.2308678 10.3468647,16.6667085 10.7840493,16.2259854 C11.2210873,15.7846605 11.7186187,15.5358022 12.2766435,15.4783872 L13.6857294,8.91454427 C13.7507672,8.61675678 13.8902734,8.39028662 14.1041014,8.23561527 C14.3181738,8.08124484 14.5411883,8.04399131 14.7738289,8.12409542 C15.0066162,8.20438008 15.1855066,8.37319454 15.3108912,8.63083969 C15.4367644,8.88884595 15.4715065,9.16659237 15.4156552,9.46437986 Z M17.4874811,9.31825455 C17.1386423,8.88884595 16.9641007,8.3704261 16.9641007,7.76329591 C16.9641007,7.15616571 17.1386423,6.63792641 17.4874811,6.20833726 C17.8363199,5.77874812 18.2570374,5.56383318 18.7500244,5.56383318 C19.2429626,5.56383318 19.6636801,5.77874812 20.0125189,6.20833726 C20.3613577,6.63792641 20.5359481,7.15616571 20.5359481,7.76329591 C20.5359481,8.37024555 20.3613577,8.8886654 20.0125189,9.31825455 C19.6636801,9.74778351 19.2429626,9.96275864 18.7500244,9.96275864 C18.2570374,9.96275864 17.8363199,9.74778351 17.4874811,9.31825455 Z M22.6910868,17.0161334 C22.342248,17.445542 21.9215306,17.6609986 21.4285924,17.6609986 C20.9356053,17.6609986 20.5148878,17.445542 20.166049,17.0161334 C19.8172102,16.5869053 19.6428153,16.0683049 19.6428153,15.4611145 C19.6428153,14.8539844 19.8172102,14.3358052 20.166049,13.9061559 C20.5148878,13.4765066 20.9356053,13.261712 21.4285924,13.261712 C21.9215306,13.261712 22.342248,13.4765066 22.6910868,13.9061559 C23.0399256,14.3358052 23.2141252,14.8539844 23.2141252,15.4611145 C23.2141252,16.0683049 23.0398768,16.586484 22.6910868,17.0161334 Z" id="Shape"></path>
                </g>
            </g>
        </g>
    </g>
</svg>
