<?xml version="1.0" encoding="utf-8"?>
<!-- Generator: Adobe Illustrator 19.2.1, SVG Export Plug-In . SVG Version: 6.00 Build 0)  -->
<svg version="1.1" id="Layer_1" xmlns="http://www.w3.org/2000/svg" xmlns:xlink="http://www.w3.org/1999/xlink" x="0px" y="0px"
	 viewBox="0 0 159.9 163.6" style="enable-background:new 0 0 159.9 163.6;" xml:space="preserve">
<style type="text/css">
	.st0{fill:none;stroke:#EEF5DB;stroke-width:12.3481;stroke-linecap:round;stroke-linejoin:round;stroke-miterlimit:10;}
	.st1{fill:none;stroke:#EEF5DB;stroke-width:12;stroke-linecap:round;stroke-linejoin:round;stroke-miterlimit:10;}
</style>
<g id="Icon_60_">
	<path class="st0" d="M34.2,82.8"/>
	<path class="st0" d="M43.8,108L77,147.3c0.6,0.7,1.6,0.7,2.1,0l33.2-39.4"/>
	<path class="st0" d="M41.7,91.6"/>
	<path class="st0" d="M120.2,91.6"/>
	<path class="st0" d="M50.2,101.7"/>
	<path class="st0" d="M137.5,62.3"/>
	<path class="st0" d="M19.3,63.1c-2.6-3.6-4.5-7.7-5.4-12.2c-0.4-2.1-0.7-4.3-0.7-6.6C13.2,26.5,27.8,12,45.9,12
		c14.9,0,27.5,9.8,31.4,23.3l1.4,0C82.7,21.9,95.2,12,110.1,12c18.1,0,32.7,14.5,32.7,32.3c0,2.3-0.2,4.5-0.7,6.6
		c-1,4.6-2.9,8.8-5.6,12.5"/>
	<path class="st0" d="M30.1,55.9"/>
	<path class="st0" d="M44.6,65.1"/>
	<path class="st0" d="M123.2,65.1"/>
	<polyline class="st1" points="13.2,87.3 38.4,86.4 52.3,65.4 72.5,102.1 89.7,89 140,89 	"/>
</g>
</svg>
