<?xml version="1.0" encoding="utf-8"?>
<!-- Generator: Adobe Illustrator 19.2.1, SVG Export Plug-In . SVG Version: 6.00 Build 0)  -->
<svg version="1.1" id="Layer_1" xmlns="http://www.w3.org/2000/svg" xmlns:xlink="http://www.w3.org/1999/xlink" x="0px" y="0px"
	 viewBox="0 0 91 96" style="enable-background:new 0 0 91 96;" xml:space="preserve">
<style type="text/css">
	.st0{fill:none;stroke:#EEF5DB;stroke-width:7.6174;stroke-linecap:round;}
</style>
<g>
	<title>Icon</title>
	<desc>Created with Sketch.</desc>
	<g id="Welcome_1_">
		<g id="Mobile-Portrait_1_" transform="translate(-106.000000, -605.000000)">
			<g id="Icon_1_" transform="translate(109.000000, 608.000000)">
				<path id="Stroke-13_1_" class="st0" d="M62.6,54.6c0-6.9-9.1-12.5-20.4-12.5s-20.4,5.6-20.4,12.5"/>
				<path id="Stroke-15_1_" class="st0" d="M42.1,42.1c6.2,0,11.2-5.1,11.2-11.5s-5-11.5-11.2-11.5s-11.2,5.1-11.2,11.5
					S35.9,42.1,42.1,42.1L42.1,42.1z"/>
				<path id="Stroke-17_1_" class="st0" d="M62.3,54.6v6.8c0,0.6-0.2,1.5-0.8,1.5H22.7c-0.6,0-1.3-0.9-1.3-1.5v-6.8"/>
			</g>
			<circle class="st0" cx="151" cy="653" r="36.6"/>
		</g>
	</g>
</g>
</svg>
