<?xml version="1.0" encoding="UTF-8"?>
<svg width="383px" height="216px" viewBox="0 0 383 216" version="1.1" xmlns="http://www.w3.org/2000/svg" xmlns:xlink="http://www.w3.org/1999/xlink">
    <!-- Generator: Sketch 42 (36781) - http://www.bohemiancoding.com/sketch -->
    <title>Segment Circle</title>
    <desc>Created with Sketch.</desc>
    <defs></defs>
    <g id="Welcome" stroke="none" stroke-width="1" fill="none" fill-rule="evenodd">
        <g id="Desktop" transform="translate(-871.000000, -107.000000)">
            <rect id="Rectangle-7" fill="#B8D8D8" x="334" y="94" width="930" height="250"></rect>
            <g id="Segment-Circle" transform="translate(1066.500000, 298.000000) rotate(-90.000000) translate(-1066.500000, -298.000000) translate(904.500000, 136.500000)">
                <path d="M161.5,0 C219.20395,0 272.5151,30.7819 301.359,80.75 C330.2029,130.7181 330.2029,192.2819 301.359,242.25 C272.5151,292.2181 219.20395,323 161.5,323 C103.79605,323 50.4849,292.2181 21.641,242.25 C-7.2029,192.2819 -7.2029,130.7181 21.641,80.75 C50.4849,30.7819 103.79605,0 161.5,0 L161.5,16.15 C109.57775,16.15 61.5961,43.84725 35.6269,88.825 C9.6577,133.80275 9.6577,189.19725 35.6269,234.175 C61.5961,279.15275 109.57775,306.85 161.5,306.85 C213.42225,306.85 261.4039,279.15275 287.3731,234.175 C313.3423,189.19725 313.3423,133.80275 287.3731,88.825 C261.4039,43.84725 213.42225,16.15 161.5,16.15 L161.5,0 Z" id="Base-plate" fill-opacity="0.002" fill="#455A64"></path>
                <path d="M161.5,0 C178.44135,0 195.2858,2.66475 211.4035,7.89735 L206.41315,23.256 C191.91045,18.5402 176.7456,16.15 161.5,16.15 L161.5,0 Z" id="Segment-5" fill="#FFFFFF"></path>
                <path d="M211.4035,7.89735 C227.5212,13.12995 242.71835,20.88195 256.4297,30.8465 L246.9335,43.91185 C234.5949,34.9486 220.91585,27.9718 206.41315,23.256 L211.4035,7.89735 Z" id="Segment--5" fill="#4F6367"></path>
                <path d="M256.4297,30.8465 C270.14105,40.81105 282.18895,52.85895 292.1535,66.5703 L279.08815,76.0665 C270.1249,63.7279 259.2721,52.8751 246.9335,43.91185 L256.4297,30.8465 Z" id="Segment--5" fill="#EEF5DB"></path>
                <path d="M292.1535,66.5703 C322.5478,108.3988 331.075,162.2429 315.10265,211.4035 L299.744,206.41315 C314.1175,162.16215 306.4301,113.71215 279.08815,76.0665 L292.1535,66.5703 Z" id="Segment--15" fill="#7A9E9F"></path>
                <path d="M315.10265,211.4035 C297.27305,266.2812 251.5201,307.4637 195.07585,319.46315 C184.02925,321.8049 172.78885,323 161.5,323 L161.5,306.85 C213.42225,306.85 261.4039,279.15275 287.3731,234.175 C292.4442,225.37325 296.6109,216.07085 299.744,206.41315 L315.10265,211.4035 Z" id="Segment-20" fill-opacity="0.6" fill="#FE5F55"></path>
                <text id="59%" transform="translate(225.000000, 162.500000) rotate(90.000000) translate(-225.000000, -162.500000) " font-family="OpenSans-Bold, Open Sans" font-size="30" font-weight="bold" fill="#FE5F55">
                    <tspan x="194.362793" y="174">59%</tspan>
                </text>
                <text id="Goal" transform="translate(187.000000, 161.500000) rotate(90.000000) translate(-187.000000, -161.500000) " font-family="OpenSans-Bold, Open Sans" font-size="36" font-weight="bold" fill="#4F6367">
                    <tspan x="146.456055" y="175">Goal</tspan>
                </text>
            </g>
        </g>
    </g>
</svg>